# xmcd CD database file
#
# Track frame offsets:
#	150
#	14820
#	33239
#	36463
#	51012
#	58673
#	70703
#	83803
#	96266
#	108249
#	111033
#	125957
#	136476
#	154282
#	158258
#	169136
#	189963
#	204087
#	223664
#	233697
#	254737
#	267651
#	270831
#	286608
#
# Disc length: 3946 seconds
#
# Revision: 0
# Processed by: cddbd v1.5.1PL2 Copyright (c) Steve Scherf et al.
# Submitted via: CDex 1.51
#
DISCID=550f6818
DTITLE=Joh Shreeve - From Texas to Montana
DYEAR=2004
DGENRE=Country
TTITLE0=The Old Chicken Trail
TTITLE1=The Range of The Buffalo
TTITLE2=Anthem 1
TTITLE3=Power in the Wind
TTITLE4=Soldiers Joy
TTITLE5=The Pecor stream
TTITLE6=A Womans Life
TTITLE7=The freedom song
TTITLE8=Los Estados Unidos
TTITLE9=Anthem 2
TTITLE10=The old Double Diamond
TTITLE11=Diamond Joe
TTITLE12=Bob Fudge
TTITLE13=Nothin' to do but Go
TTITLE14=Old Buddy, Goodnight
TTITLE15=Sourdough/The Miners Song
TTITLE16=Jackhammers John
TTITLE17=Bessie and Me
TTITLE18=Deep Water, Ice and Snow
TTITLE19=Cold Missouri Waters
TTITLE20=Roll on Owyhee
TTITLE21=Anthem 3
TTITLE22=Montana Backroads
TTITLE23=Walking after Midnight
EXTD=YEAR: 2004
EXTT0=
EXTT1=
EXTT2=
EXTT3=
EXTT4=
EXTT5=
EXTT6=
EXTT7=
EXTT8=
EXTT9=
EXTT10=
EXTT11=
EXTT12=
EXTT13=
EXTT14=
EXTT15=
EXTT16=
EXTT17=
EXTT18=
EXTT19=
EXTT20=
EXTT21=
EXTT22=
EXTT23=
PLAYORDER=
